# xmcd
#
# Track frame offsets:
#	180
#	19453
#	43775
#	65547
#	88175
#	112881
#	136569
#	164199
#	186093
#	208536
#
# Disc length: 3000 seconds
#
# Revision: 0
# Processed by: cddbd v1.5.2PL0 Copyright (c) Steve Scherf et al.
# Submitted via: EZCDAudioConverter 8.0.2.1
#
DISCID=8c0bb60a
DTITLE=张惠妹 - 妹力四射 1998张惠妹演唱会提前先听版(中文歌)
DYEAR=1998
DGENRE=
TTITLE0=天天天蓝
TTITLE1=站在高岗上
TTITLE2=不要告别
TTITLE3=恋曲1990
TTITLE4=You Make Me Free
TTITLE5=没有烟抽日子
TTITLE6=哭砂
TTITLE7=跟着感觉走
TTITLE8=我无所谓
TTITLE9=热线你和我
EXTD=
EXTT0=
EXTT1=
EXTT2=
EXTT3=
EXTT4=
EXTT5=
EXTT6=
EXTT7=
EXTT8=
EXTT9=
PLAYORDER=
